<svg width="512" height="481" viewBox="0 0 512 481" fill="none" xmlns="http://www.w3.org/2000/svg">
<path d="M255.996 90.086C280.873 90.086 301.039 69.9196 301.039 45.043C301.039 20.1664 280.873 0 255.996 0C231.119 0 210.953 20.1664 210.953 45.043C210.953 69.9196 231.119 90.086 255.996 90.086Z" fill="#57BBDD"/>
<path d="M329.101 61.5769C321.53 95.0169 291.697 120.115 256.001 120.115C220.305 120.115 190.472 95.0169 182.901 61.5769C156.05 67.5599 135.886 91.4829 135.886 120.115V180.173C135.886 196.727 149.361 210.202 165.915 210.202C182.469 210.202 195.944 196.727 195.944 180.173V150.144H316.059V180.173C316.059 196.727 329.534 210.202 346.088 210.202C362.642 210.202 376.117 196.727 376.117 180.173V120.115C376.116 91.4829 355.951 67.5599 329.101 61.5769Z" fill="#57BBDD"/>
<path d="M488.717 366.953C467.172 354.514 439.625 361.894 427.186 383.439C414.748 404.982 422.129 432.531 443.674 444.968C465.217 457.407 493.767 450.025 506.204 428.482C518.643 406.938 510.26 379.391 488.717 366.953Z" fill="#57BBDD"/>
<path d="M461.237 264.402L409.227 234.373C394.89 226.096 376.484 231.028 368.207 245.365C359.93 259.702 364.862 278.108 379.199 286.385L405.205 301.399L345.147 405.422L319.141 390.408C304.804 382.131 286.398 387.063 278.121 401.4C269.844 415.737 274.776 434.143 289.113 442.42L341.123 472.449C365.921 486.765 396.721 481.263 415.326 461.001C390.152 437.725 383.332 399.34 401.18 368.425C419.028 337.51 455.68 324.225 488.426 334.387C496.671 308.144 486.035 278.718 461.237 264.402Z" fill="#57BBDD"/>
<path d="M84.8149 383.44C72.3759 361.895 44.8289 354.514 23.2839 366.954C1.74086 379.392 -6.64314 406.939 5.79686 428.484C18.2339 450.027 46.7839 457.409 68.3269 444.97C89.8719 432.531 97.2529 404.983 84.8149 383.44Z" fill="#57BBDD"/>
<path d="M233.88 401.4C225.603 387.063 207.196 382.132 192.86 390.408L166.854 405.422L106.796 301.399L132.802 286.385C147.139 278.108 152.07 259.701 143.794 245.365C135.517 231.028 117.11 226.097 102.774 234.373L50.7638 264.402C25.9658 278.718 15.3298 308.144 23.5758 334.388C56.3208 324.225 92.9738 337.511 110.822 368.426C128.67 399.341 121.85 437.725 96.6758 461.002C115.281 481.263 146.081 486.766 170.879 472.45L222.889 442.42C237.225 434.143 242.157 415.736 233.88 401.4Z" fill="#57BBDD"/>
</svg>